# Blender v2.82 (sub 7) OBJ File: 'Chair_2.blend'
# www.blender.org
mtllib Chair_2.mtl
o Chair_2_Cube.003
v -1.635198 -0.140782 1.635198
v -1.635198 0.140782 1.635198
v -1.635198 -0.140782 -1.635198
v -1.635198 0.140782 -1.635198
v 1.635198 -0.140782 1.635198
v 1.635198 0.140782 1.635198
v 1.635198 -0.140782 -1.635198
v 1.635198 0.140782 -1.635198
v 1.226399 0.140782 -1.635198
v 1.226399 -0.140782 1.635198
v 1.226399 -0.140782 -1.635198
v 1.226399 0.140782 1.635198
v -1.226399 -0.140782 -1.635198
v -1.226399 0.140782 1.635198
v -1.226399 0.140782 -1.635198
v -1.226399 -0.140782 1.635198
v 1.635198 2.775265 1.635198
v 1.163924 3.222119 1.913257
v 1.163924 3.222119 -1.913257
v 1.635198 2.775265 -1.635198
v 1.226399 2.775265 -1.635198
v 1.697673 3.222119 -1.913257
v -1.635198 -0.140782 1.226399
v 1.635198 0.140782 1.226399
v -1.226399 -2.185141 -1.226399
v 1.226399 -2.185141 -1.226399
v -1.635198 -2.185141 -1.226399
v -1.635198 -2.185141 1.635198
v 1.226399 -0.140782 1.226399
v 1.635198 -2.185141 1.226399
v -1.226399 -2.185141 1.226399
v -1.226399 -0.140782 1.226399
v -1.226399 -2.185141 1.635198
v -1.635198 0.140782 1.226399
v 1.635198 -0.140782 1.226399
v 1.697673 3.222119 1.913257
v 1.697673 2.740249 -1.913257
v 1.226399 -2.185141 1.226399
v 1.163924 2.740249 -1.913257
v 1.226399 2.775265 1.635198
v 1.163924 2.740249 1.913257
v 1.226399 -2.185141 -1.635198
v -1.635198 0.140782 -1.226399
v 1.635198 -0.140782 -1.226399
v -1.635198 -0.140782 -1.226399
v 1.635198 0.140782 -1.226399
v 1.635198 -2.185141 1.635198
v 1.697673 2.740249 1.913257
v 1.226399 -2.185141 1.635198
v 1.635198 -2.185141 -1.635198
v -1.635198 -2.185141 1.226399
v 1.226399 -0.140782 -1.226399
v 1.635198 -2.185141 -1.226399
v -1.635198 -2.185141 -1.635198
v -1.226399 -0.140782 -1.226399
v -1.226399 -2.185141 -1.635198
v 1.623399 0.216819 1.137906
v 1.623399 0.216819 1.517209
v 1.244097 2.661209 -1.517209
v 1.244097 2.661209 1.517209
v 1.623399 0.216819 -1.137907
v 1.623399 2.661209 -1.517209
v 1.623399 2.661209 1.517209
v 1.244097 0.216819 -1.517209
v 1.244097 0.216819 1.517209
v 1.623399 0.216819 -1.517209
v 1.635198 2.775265 -1.625965
v 1.697673 2.740249 -1.592576
v 1.697673 3.076558 -1.913257
v 1.163924 3.076558 -1.913257
v 1.163924 2.740249 -1.592576
v 1.226399 2.775265 -1.625965
v 1.226399 2.775265 1.625965
v 1.163924 2.740249 1.592576
v 1.163924 3.076558 1.913257
v 1.697673 3.076558 1.913257
v 1.697673 2.740249 1.592576
v 1.635198 2.775265 1.625965
v 1.226399 0.140782 -0.000000
v 1.244097 0.216819 -0.000000
v 1.623399 0.216819 -0.000000
v 1.623399 0.216819 -0.758604
v 1.226399 0.140782 -0.817599
v 1.244097 0.216819 -0.758604
v 1.226399 0.140782 0.817599
v 1.244097 0.216819 0.758604
v 1.623399 0.216819 0.758604
v 1.623399 0.216819 0.379302
v 1.226399 0.140782 0.408799
v 1.244097 0.216819 0.379302
v 1.226399 0.140782 -0.408800
v 1.244097 0.216819 -0.379302
v 1.623399 0.216819 -0.379302
v 1.226399 0.140782 -0.204400
v 1.244097 0.216819 -0.189651
v 1.623399 0.216819 -0.189651
v 1.623399 0.216819 0.189651
v 1.226399 0.140782 0.204400
v 1.244097 0.216819 0.189651
v 1.244097 2.692477 -0.189651
v 1.244097 2.692477 -0.000000
v 1.623399 2.692477 0.189651
v 1.623399 2.692477 -0.000000
v 1.623399 2.692477 -0.189651
v 1.244097 2.692477 0.189651
v -1.426971 0.140782 -1.082241
v -1.426971 0.140782 -1.442988
v -1.066224 0.140782 1.442988
v -1.426971 0.140782 1.442988
v -1.066224 0.140782 -1.442988
v 1.098259 0.140782 -1.442988
v 1.098259 0.140782 1.442988
v 1.098259 0.140782 0.721494
v -1.426971 0.140782 1.082241
v 1.098259 0.140782 -0.180374
v 1.098259 0.140782 -0.000000
v 1.098259 0.140782 -0.721494
v 1.098259 0.140782 0.360747
v 1.098259 0.140782 0.180373
v 1.098259 0.140782 -0.360747
v -1.426971 0.206823 -1.082241
v -1.426971 0.206823 -1.442988
v -1.066224 0.206823 1.442988
v -1.426971 0.206823 1.442988
v -1.066224 0.206823 -1.442988
v 1.098259 0.206823 -1.442988
v 1.098259 0.206823 1.442988
v 1.098259 0.206823 0.721494
v -1.426971 0.206823 1.082241
v 1.098259 0.206823 -0.180374
v 1.098259 0.206823 -0.000000
v 1.098259 0.206823 -0.721494
v 1.098259 0.206823 0.360747
v 1.098259 0.206823 0.180373
v 1.098259 0.206823 -0.360747
vt 0.375000 0.218750
vt 0.625000 0.218750
vt 0.625000 0.250000
vt 0.375000 0.250000
vt 0.375000 0.468750
vt 0.625000 0.468750
vt 0.625000 0.500000
vt 0.375000 0.500000
vt 0.375000 0.718750
vt 0.625000 0.718750
vt 0.625000 0.750000
vt 0.375000 0.750000
vt 0.375000 0.968750
vt 0.625000 0.968750
vt 0.625000 1.000000
vt 0.375000 1.000000
vt 0.156250 0.531250
vt 0.156250 0.718750
vt 0.125000 0.718750
vt 0.125000 0.531250
vt 0.375000 0.781250
vt 0.625000 0.781250
vt 0.375000 0.031250
vt 0.625000 0.031250
vt 0.625000 0.281250
vt 0.375000 0.281250
vt 0.343750 0.500000
vt 0.343750 0.531250
vt 0.156250 0.500000
vt 0.343750 0.718750
vt 0.343750 0.750000
vt 0.156250 0.750000
vt 0.625000 0.468750
vt 0.625000 0.468750
vt 0.625000 0.468750
vt 0.375000 0.531250
vt 0.375000 0.000000
vt 0.625000 0.000000
vt 0.625000 0.781250
vt 0.625000 0.781250
vt 0.625000 0.781250
vt 0.625000 0.750000
vt 0.625000 0.500000
vt 0.656250 0.750000
vt 0.656250 0.687500
vt 0.656250 0.687500
vt 0.656250 0.750000
vt 0.625000 0.531250
vt 0.625000 0.500000
vt 0.625000 0.531250
vt 0.625000 0.718750
vt 0.625000 0.750000
vt 0.656250 0.750000
vt 0.656250 0.687500
vt 0.625000 0.500000
vt 0.625000 0.750000
vt 0.656250 0.562500
vt 0.000000 0.000000
vt 0.000000 0.000000
vt 0.656250 0.500000
vt 0.000000 0.000000
vt 0.656250 0.609375
vt 0.656250 0.609375
vt 0.000000 0.000000
vt 0.656250 0.609375
vt 0.656250 0.625000
vt 0.656250 0.625000
vt 0.656250 0.500000
vt 0.656250 0.562500
vt 0.656250 0.593750
vt 0.000000 0.000000
vt 0.000000 0.000000
vt 0.000000 0.000000
vt 0.656250 0.656250
vt 0.656250 0.656250
vt 0.656250 0.640625
vt 0.656250 0.640625
vt 0.000000 0.000000
vt 0.656250 0.593750
vt 0.656250 0.640625
vt 0.656250 0.625000
vt 0.000000 0.000000
vt 0.000000 0.000000
vt 0.000000 0.000000
vt 0.000000 0.000000
vt 0.625000 0.250000
vt 0.625000 0.281250
vt 0.656250 0.562500
vt 0.656250 0.593750
vt 0.656250 0.500000
vt 0.625000 0.468750
vt 0.656250 0.609375
vt 0.656250 0.625000
vt 0.625000 0.000000
vt 0.625000 0.031250
vt 0.656250 0.640625
vt 0.656250 0.656250
vt 0.625000 0.218750
vt 0.625000 0.968750
vt 0.625000 1.000000
vt 0.625000 0.781250
vt 0.375000 0.281250
vt 0.375000 0.250000
vt 0.375000 0.500000
vt 0.375000 0.468750
vt 0.125000 0.500000
vt 0.156250 0.500000
vt 0.156250 0.531250
vt 0.125000 0.531250
vt 0.375000 0.750000
vt 0.375000 0.718750
vt 0.375000 0.531250
vt 0.656250 0.500000
vt 0.656250 0.750000
vt 0.625000 0.750000
vt 0.625000 0.500000
vt 0.375000 0.781250
vt 0.625000 0.781250
vt 0.625000 0.750000
vt 0.625000 0.781250
vt 0.343750 0.500000
vt 0.343750 0.531250
vt 0.625000 0.500000
vt 0.625000 0.468750
vt 0.625000 0.468750
vt 0.343750 0.718750
vt 0.343750 0.750000
vt 0.375000 0.031250
vt 0.375000 0.000000
vt 0.375000 0.218750
vt 0.375000 1.000000
vt 0.375000 0.968750
vt 0.625000 0.468750
vt 0.625000 0.500000
vt 0.625000 0.750000
vt 0.625000 0.781250
vt 0.625000 0.500706
vt 0.625000 0.520951
vt 0.656250 0.749294
vt 0.656250 0.750000
vt 0.656250 0.750000
vt 0.656250 0.729049
vt 0.656250 0.750000
vt 0.125000 0.718750
vt 0.156250 0.718750
vt 0.156250 0.750000
vt 0.125000 0.750000
vt 0.656250 0.500000
vt 0.656250 0.520951
vt 0.656250 0.500000
vt 0.656250 0.500000
vt 0.656250 0.500706
vt 0.656250 0.500000
vt 0.625000 0.749294
vt 0.625000 0.729049
vt 0.656250 0.750000
vt 0.625000 0.968750
vt 0.625000 1.000000
vt 0.843750 0.500000
vt 0.875000 0.500000
vt 0.875000 0.531250
vt 0.875000 0.718750
vt 0.875000 0.750000
vt 0.843750 0.750000
vt 0.656250 0.750000
vt 0.656250 0.687500
vt 0.656250 0.656250
vt 0.656250 0.640625
vt 0.656250 0.625000
vt 0.656250 0.609375
vt 0.656250 0.593750
vt 0.656250 0.562500
vt 0.656250 0.500000
vt 0.625000 0.281250
vt 0.625000 0.468750
vt 0.625000 0.781250
vt 0.625000 0.250000
vt 0.625000 0.000000
vt 0.625000 0.031250
vt 0.625000 0.218750
vn -0.9045 -0.3015 0.3015
vn -0.7071 0.7071 0.0000
vn -0.5773 0.5773 -0.5773
vn -0.7071 0.0000 -0.7071
vn -0.3015 -0.3015 -0.9045
vn -0.3053 0.3330 -0.8921
vn 0.7178 0.0203 -0.6959
vn 0.7071 0.0000 -0.7071
vn 0.9045 -0.3015 -0.3015
vn 0.9970 0.0769 0.0000
vn 0.7178 0.0203 0.6959
vn 0.7071 0.0000 0.7071
vn 0.3015 -0.3015 0.9045
vn 0.0000 0.7071 0.7071
vn -0.5773 0.5773 0.5773
vn -0.7071 0.0000 0.7071
vn 0.3015 -0.9045 0.3015
vn 0.3015 -0.9045 -0.3015
vn -0.9045 -0.3015 -0.3015
vn -0.3015 -0.3015 0.9045
vn -0.3053 0.3330 0.8921
vn 0.0000 0.7071 -0.7071
vn 0.3015 -0.3015 -0.9045
vn -0.3015 -0.9045 0.3015
vn -0.3015 -0.9045 -0.3015
vn -0.0330 -0.9629 -0.2676
vn -0.9043 0.4223 0.0623
vn -0.9210 -0.3833 0.0686
vn 0.9045 -0.3015 0.3015
vn -0.0330 -0.9629 0.2676
vn -0.9210 -0.3833 -0.0686
vn -0.9043 0.4223 -0.0623
vn 0.0340 -0.9600 0.2779
vn 0.0340 -0.9600 -0.2779
vn -0.6218 0.7832 0.0000
vn 0.7071 0.7071 0.0000
vn 0.3015 0.9045 0.3015
vn 0.9208 0.3877 0.0421
vn 0.9882 0.1533 0.0000
vn 0.9208 0.3877 -0.0421
vn 0.9314 -0.3609 0.0462
vn 0.9314 -0.3609 -0.0462
vn 0.0000 1.0000 0.0000
vn 0.5773 0.5773 -0.5773
vn -0.8581 0.4230 -0.2911
vn -0.9935 0.1141 0.0000
vn -0.8581 0.4230 0.2911
vn 0.5773 0.5773 0.5773
vn 1.0000 0.0000 0.0000
vn -0.3015 0.9045 -0.3015
vn 0.3015 0.9045 -0.3015
vn -0.3015 0.9045 0.3015
vn 0.5773 -0.5773 -0.5773
vn -0.5773 -0.5773 -0.5773
vn 0.5773 -0.5773 0.5773
vn -0.5773 -0.5773 0.5773
vn -0.5679 -0.6123 -0.5500
vn 0.5679 -0.6123 -0.5500
vn 0.5679 -0.6123 0.5500
vn -0.5679 -0.6123 0.5500
vn 0.4604 -0.8877 0.0000
vn 0.5055 -0.8628 0.0000
vn -0.4376 -0.8991 0.0000
vn -0.5055 -0.8628 0.0000
usemtl Chair_Body.001
s 1
f 45/1/1 43/2/2 4/3/3 3/4/4
f 11/5/5 9/6/6 8/7/7 7/8/8
f 35/9/9 24/10/10 6/11/11 5/12/12
f 16/13/13 14/14/14 2/15/15 1/16/16
f 55/17/17 32/18/18 23/19/19 45/20/1
f 10/21/20 12/22/21 14/14/14 16/13/13
f 5/12/12 6/11/11 12/22/21 10/21/20
f 23/23/19 34/24/2 43/2/2 45/1/1
f 3/4/4 4/3/3 15/25/22 13/26/23
f 11/27/5 52/28/24 55/17/17 13/29/23
f 29/30/25 10/31/20 16/32/13 32/18/18
f 21/33/26 9/6/6 64/34/27 59/35/28
f 35/9/9 29/30/25 52/28/24 44/36/29
f 1/37/16 2/38/15 34/24/2 23/23/19
f 52/28/24 29/30/25 32/18/18 55/17/17
f 12/22/21 40/39/30 60/40/31 65/41/32
f 15/25/22 9/6/6 11/5/5 13/26/23
f 12/22/21 6/11/11 17/42/33 40/39/30
f 8/7/7 9/6/6 21/33/26 20/43/34
f 12/44/21 85/45/35 113/46/36 112/47/37
f 7/8/8 8/7/7 46/48/10 44/36/29
f 46/48/10 24/10/10 35/9/9 44/36/29
f 46/48/10 8/7/7 66/49/38 61/50/39
f 6/11/11 24/10/10 57/51/39 58/52/40
f 85/45/35 12/44/21 65/53/32 86/54/35
f 24/10/10 46/48/10 61/50/39 57/51/39
f 8/7/7 20/43/34 62/55/41 66/49/38
f 17/42/33 6/11/11 58/52/40 63/56/42
f 84/57/35 82/58/43 66/59/38 64/60/27
f 96/61/44 95/62/45 100/63/3 104/64/44
f 94/65/35 79/66/35 80/67/46 95/62/45
f 9/68/6 83/69/35 84/57/35 64/60/27
f 92/70/35 93/71/43 82/58/43 84/57/35
f 65/53/32 58/72/40 87/73/43 86/54/35
f 89/74/35 85/45/35 86/54/35 90/75/35
f 98/76/35 89/74/35 90/75/35 99/77/47
f 86/54/35 87/73/43 88/78/43 90/75/35
f 95/62/45 96/61/44 93/71/43 92/70/35
f 83/69/35 91/79/35 92/70/35 84/57/35
f 80/67/46 99/77/47 105/80/15 101/81/2
f 91/79/35 94/65/35 95/62/45 92/70/35
f 79/66/35 98/76/35 99/77/47 80/67/46
f 90/75/35 88/78/43 97/82/48 99/77/47
f 97/82/48 81/83/49 103/84/36 102/85/48
f 81/83/49 96/61/44 104/64/44 103/84/36
f 99/77/47 97/82/48 102/85/48 105/80/15
f 95/62/45 80/67/46 101/81/2 100/63/3
f 15/25/22 4/3/3 107/86/50 110/87/22
f 91/79/35 83/69/35 117/88/36 120/89/36
f 83/69/35 9/68/6 111/90/51 117/88/36
f 9/6/6 15/25/22 110/87/22 111/91/51
f 79/66/35 94/65/35 115/92/36 116/93/36
f 34/24/2 2/38/15 109/94/52 114/95/2
f 89/74/35 98/76/35 119/96/36 118/97/36
f 98/76/35 79/66/35 116/93/36 119/96/36
f 4/3/3 43/2/2 106/98/2 107/86/50
f 43/2/2 34/24/2 114/95/2 106/98/2
f 85/45/35 89/74/35 118/97/36 113/46/36
f 94/65/35 91/79/35 120/89/36 115/92/36
f 2/15/15 14/14/14 108/99/14 109/100/52
f 14/14/14 12/22/21 112/101/37 108/99/14
usemtl Chair_Legs.001
f 3/4/4 13/26/23 56/102/53 54/103/54
f 11/5/5 7/8/8 50/104/53 42/105/54
f 54/106/54 56/107/53 25/108/55 27/109/56
f 13/29/23 55/17/17 25/108/55 56/107/53
f 35/9/9 5/12/12 47/110/55 30/111/53
f 7/8/8 44/36/29 53/112/55 50/104/53
f 19/113/3 18/114/15 36/115/48 22/116/44
f 5/12/12 10/21/20 49/117/56 47/110/55
f 75/118/16 76/119/12 36/115/48 18/120/15
f 52/28/24 11/27/5 42/121/54 26/122/56
f 69/123/8 70/124/4 19/125/3 22/116/44
f 38/126/54 30/111/53 47/110/55 49/127/56
f 1/37/16 23/23/19 51/128/54 28/129/56
f 55/17/17 45/20/1 27/109/56 25/108/55
f 45/1/1 3/4/4 54/103/54 27/130/56
f 16/13/13 1/16/16 28/131/56 33/132/55
f 20/43/34 21/33/26 39/133/57 37/134/58
f 44/36/29 52/28/24 26/122/56 53/112/55
f 10/31/20 29/30/25 38/126/54 49/127/56
f 40/39/30 17/42/33 48/135/59 41/136/60
f 67/137/61 20/43/34 37/134/58 68/138/62
f 29/30/25 35/9/9 30/111/53 38/126/54
f 42/121/54 50/104/53 53/112/55 26/122/56
f 73/139/63 40/140/30 41/141/60 74/142/64
f 74/142/64 41/141/60 75/143/16
f 51/144/54 31/145/53 33/146/55 28/147/56
f 68/138/62 37/134/58 69/123/8
f 32/18/18 16/32/13 33/146/55 31/145/53
f 23/19/19 32/18/18 31/145/53 51/144/54
f 39/148/57 71/149/64 70/150/4
f 21/151/26 72/152/63 71/149/64 39/148/57
f 72/152/63 21/151/26 59/153/28
f 78/154/61 17/42/33 63/56/42
f 37/134/58 39/133/57 70/124/4 69/123/8
f 77/155/62 68/138/62 69/123/8 22/116/44 36/115/48 76/119/12
f 78/154/61 67/137/61 68/138/62 77/155/62
f 20/43/34 67/137/61 62/55/41
f 73/139/63 72/152/63 59/153/28 60/156/31
f 17/42/33 78/154/61 77/155/62 48/135/59
f 48/135/59 77/155/62 76/119/12
f 41/136/60 48/135/59 76/119/12 75/118/16
f 71/149/64 74/142/64 75/143/16 18/114/15 19/113/3 70/150/4
f 72/152/63 73/139/63 74/142/64 71/149/64
f 67/137/61 78/154/61 63/56/42 62/55/41
f 40/140/30 73/139/63 60/156/31
f 60/156/31 59/153/28 62/55/41 63/56/42
f 105/80/15 102/85/48 103/84/36 101/81/2
f 101/81/2 103/84/36 104/64/44 100/63/3
usemtl Cushion.001
f 109/100/52 108/99/14 123/157/14 124/158/15
f 125/159/22 122/160/3 121/161/2 129/162/2 124/163/15 123/164/14 127/165/48 128/166/36 133/167/36 134/168/36 131/169/36 130/170/36 135/171/36 132/172/36 126/173/44
f 117/88/36 111/90/51 126/173/44 132/172/36
f 111/91/51 110/87/22 125/174/22 126/175/44
f 113/46/36 118/97/36 133/167/36 128/166/36
f 108/99/14 112/101/37 127/176/48 123/157/14
f 118/97/36 119/96/36 134/168/36 133/167/36
f 110/87/22 107/86/50 122/177/3 125/174/22
f 120/89/36 117/88/36 132/172/36 135/171/36
f 112/47/37 113/46/36 128/166/36 127/165/48
f 115/92/36 120/89/36 135/171/36 130/170/36
f 114/95/2 109/94/52 124/178/15 129/179/2
f 119/96/36 116/93/36 131/169/36 134/168/36
f 106/98/2 114/95/2 129/179/2 121/180/2
f 107/86/50 106/98/2 121/180/2 122/177/3
f 116/93/36 115/92/36 130/170/36 131/169/36
