# Blender v2.82 (sub 7) OBJ File: 'Ceiling.blend'
# www.blender.org
mtllib Ceiling.mtl
o Top_Cube.080
v -14.090264 16.512243 16.040524
v -14.090264 18.512243 16.040524
v -14.090264 16.512243 -16.040524
v -14.090264 18.512243 -16.040524
v 14.090264 16.512243 16.040524
v 14.090264 18.512243 16.040524
v 14.090264 16.512243 -16.040524
v 14.090264 18.512243 -16.040524
vt 0.375000 0.000000
vt 0.625000 0.000000
vt 0.625000 0.250000
vt 0.375000 0.250000
vt 0.625000 0.500000
vt 0.375000 0.500000
vt 0.625000 0.750000
vt 0.375000 0.750000
vt 0.625000 1.000000
vt 0.375000 1.000000
vt 0.875000 0.500000
vt 0.875000 0.750000
vt 0.001468 0.003429
vt 1.001209 0.003429
vt 1.001209 0.997878
vt 0.001468 0.997878
vn -1.0000 0.0000 0.0000
vn 0.0000 0.0000 -1.0000
vn 1.0000 0.0000 0.0000
vn 0.0000 0.0000 1.0000
vn 0.0000 1.0000 0.0000
vn 0.0000 -1.0000 0.0000
usemtl Room_Material_Basic
s off
f 1/1/1 2/2/1 4/3/1 3/4/1
f 3/4/2 4/3/2 8/5/2 7/6/2
f 7/6/3 8/5/3 6/7/3 5/8/3
f 5/8/4 6/7/4 2/9/4 1/10/4
f 8/5/5 4/11/5 2/12/5 6/7/5
usemtl Ceiling_Text
f 3/13/6 7/14/6 5/15/6 1/16/6
