# Blender v2.82 (sub 7) OBJ File: 'Wall_002.blend'
# www.blender.org
mtllib Wall_002.mtl
o Wall_002_Cube.078
v -14.060000 -0.970000 18.000000
v -14.060000 16.610001 18.000000
v -14.060000 -0.970000 16.000000
v -14.060000 16.610001 16.000000
v 14.060000 -0.970000 18.000000
v 14.060000 16.610001 18.000000
v 14.060000 -0.970000 16.000000
v 14.060000 16.610001 16.000000
vt 0.375000 0.000000
vt 0.625000 0.000000
vt 0.625000 0.250000
vt 0.375000 0.250000
vt 0.375000 0.500000
vt 0.625000 0.500000
vt 0.625000 0.750000
vt 0.375000 0.750000
vt 0.625000 1.000000
vt 0.375000 1.000000
vt 0.125000 0.500000
vt 0.125000 0.750000
vt 0.875000 0.500000
vt 0.875000 0.750000
vt 1.003263 0.000801
vt 1.003350 0.999525
vt -0.003098 1.000538
vt -0.003515 -0.000832
vn -1.0000 0.0000 0.0000
vn 1.0000 0.0000 0.0000
vn 0.0000 0.0000 1.0000
vn 0.0000 -1.0000 0.0000
vn 0.0000 1.0000 0.0000
vn 0.0000 0.0000 -1.0000
usemtl Room_Material_Basic
s off
f 1/1/1 2/2/1 4/3/1 3/4/1
f 7/5/2 8/6/2 6/7/2 5/8/2
f 5/8/3 6/7/3 2/9/3 1/10/3
f 3/11/4 7/5/4 5/8/4 1/12/4
f 8/6/5 4/13/5 2/14/5 6/7/5
usemtl Wall_002
f 3/15/6 4/16/6 8/17/6 7/18/6
