# Blender v2.82 (sub 7) OBJ File: 'Wall_001.blend'
# www.blender.org
mtllib Wall_001.mtl
o Wall_001_Cube.053
v 14.000000 -0.970000 16.000000
v 14.000000 16.610001 16.000000
v 14.000000 -0.970000 -16.000000
v 14.000000 16.610001 -16.000000
v 16.000000 -0.970000 16.000000
v 16.000000 16.610001 16.000000
v 16.000000 -0.970000 -16.000000
v 16.000000 16.610001 -16.000000
vt 0.375000 0.250000
vt 0.625000 0.250000
vt 0.625000 0.500000
vt 0.375000 0.500000
vt 0.625000 0.750000
vt 0.375000 0.750000
vt 0.625000 1.000000
vt 0.375000 1.000000
vt 0.125000 0.500000
vt 0.125000 0.750000
vt 0.875000 0.500000
vt 0.875000 0.750000
vt 0.997852 -0.000034
vt 0.996515 0.999826
vt 0.001619 0.998760
vt 0.001899 -0.001101
vn 0.0000 0.0000 -1.0000
vn 1.0000 0.0000 0.0000
vn 0.0000 0.0000 1.0000
vn 0.0000 -1.0000 0.0000
vn 0.0000 1.0000 0.0000
vn -1.0000 0.0000 0.0000
usemtl Room_Material_Basic
s off
f 3/1/1 4/2/1 8/3/1 7/4/1
f 7/4/2 8/3/2 6/5/2 5/6/2
f 5/6/3 6/5/3 2/7/3 1/8/3
f 3/9/4 7/4/4 5/6/4 1/10/4
f 8/3/5 4/11/5 2/12/5 6/5/5
usemtl Wall_001
f 1/13/6 2/14/6 4/15/6 3/16/6
