# Blender 3.4.1
# www.blender.org
mtllib cue_holder.mtl
o Cube
v 0.073532 9.108498 0.069263
v 0.073532 9.108498 -0.069263
v 0.200209 1.361876 0.188588
v 0.200209 1.361876 -0.188588
v -0.073532 9.108498 0.069263
v -0.073532 9.108498 -0.069263
v -0.200209 1.361876 0.188588
v -0.200209 1.361876 -0.188588
vn 0.5730 0.5857 0.5733
vn -0.5730 0.5857 0.5733
vn -0.5816 -0.5690 0.5813
vn 0.5816 -0.5690 0.5813
vn 0.5816 -0.5690 -0.5813
vn -0.5816 -0.5690 -0.5813
vn -0.5730 0.5857 -0.5733
vn 0.5730 0.5857 -0.5733
vt 0.065853 0.913576
vt 0.086981 0.927391
vt 0.075906 0.919656
vt 0.084466 0.927856
vt 0.072395 0.910109
vt 0.070969 0.919656
vt 0.893060 0.072605
vt 0.930458 0.077354
vt 0.929945 0.101745
vt 0.916417 0.077354
vt 0.931586 0.098545
vt 0.901305 0.076380
vt 0.081022 0.930174
vt 0.085781 0.927574
vt 0.075906 0.914719
vt 0.070469 0.909926
vt 0.065534 0.912768
vt 0.070969 0.914719
vt 0.928815 0.102395
vt 0.930458 0.091396
vt 0.920604 0.108437
vt 0.916417 0.091396
vt 0.888771 0.079063
vt 0.893414 0.070205
s 1
usemtl Material.001
f 1/1/1 5/13/2 7/19/3 3/7/4
f 4/10/5 3/8/4 7/20/3 8/22/6
f 8/23/6 7/21/3 5/14/2 6/16/7
f 6/17/7 2/4/8 4/11/5 8/24/6
f 2/5/8 1/2/1 3/9/4 4/12/5
f 6/18/7 5/15/2 1/3/1 2/6/8
o Cube.001
v 0.523532 9.108498 0.069263
v 0.523532 9.108498 -0.069263
v 0.650209 1.361876 0.188588
v 0.650209 1.361876 -0.188588
v 0.376468 9.108498 0.069263
v 0.376468 9.108498 -0.069263
v 0.249791 1.361876 0.188588
v 0.249791 1.361876 -0.188588
vn 0.5730 0.5857 0.5733
vn -0.5730 0.5857 0.5733
vn -0.5816 -0.5690 0.5813
vn 0.5816 -0.5690 0.5813
vn 0.5816 -0.5690 -0.5813
vn -0.5816 -0.5690 -0.5813
vn -0.5730 0.5857 -0.5733
vn 0.5730 0.5857 -0.5733
vt 0.065853 0.913576
vt 0.086981 0.927391
vt 0.075906 0.919656
vt 0.084466 0.927856
vt 0.072395 0.910109
vt 0.070969 0.919656
vt 0.893060 0.072605
vt 0.930458 0.077354
vt 0.929945 0.101745
vt 0.916417 0.077354
vt 0.931586 0.098545
vt 0.901305 0.076380
vt 0.081022 0.930174
vt 0.085781 0.927574
vt 0.075906 0.914719
vt 0.070469 0.909926
vt 0.065534 0.912768
vt 0.070969 0.914719
vt 0.928815 0.102395
vt 0.930458 0.091396
vt 0.920604 0.108437
vt 0.916417 0.091396
vt 0.888771 0.079063
vt 0.893414 0.070205
s 1
usemtl Material.001
f 9/25/9 13/37/10 15/43/11 11/31/12
f 12/34/13 11/32/12 15/44/11 16/46/14
f 16/47/14 15/45/11 13/38/10 14/40/15
f 14/41/15 10/28/16 12/35/13 16/48/14
f 10/29/16 9/26/9 11/33/12 12/36/13
f 14/42/15 13/39/10 9/27/9 10/30/16
o Cube.002
v 0.973532 9.108498 0.069263
v 0.973532 9.108498 -0.069263
v 1.100209 1.361876 0.188588
v 1.100209 1.361876 -0.188588
v 0.826468 9.108498 0.069263
v 0.826468 9.108498 -0.069263
v 0.699791 1.361876 0.188588
v 0.699791 1.361876 -0.188588
vn 0.5730 0.5857 0.5733
vn -0.5730 0.5857 0.5733
vn -0.5816 -0.5690 0.5813
vn 0.5816 -0.5690 0.5813
vn 0.5816 -0.5690 -0.5813
vn -0.5816 -0.5690 -0.5813
vn -0.5730 0.5857 -0.5733
vn 0.5730 0.5857 -0.5733
vt 0.065853 0.913576
vt 0.086981 0.927391
vt 0.075906 0.919656
vt 0.084466 0.927856
vt 0.072395 0.910109
vt 0.070969 0.919656
vt 0.893060 0.072605
vt 0.930458 0.077354
vt 0.929945 0.101745
vt 0.916417 0.077354
vt 0.931586 0.098545
vt 0.901305 0.076380
vt 0.081022 0.930174
vt 0.085781 0.927574
vt 0.075906 0.914719
vt 0.070469 0.909926
vt 0.065534 0.912768
vt 0.070969 0.914719
vt 0.928815 0.102395
vt 0.930458 0.091396
vt 0.920604 0.108437
vt 0.916417 0.091396
vt 0.888771 0.079063
vt 0.893414 0.070205
s 1
usemtl Material.001
f 17/49/17 21/61/18 23/67/19 19/55/20
f 20/58/21 19/56/20 23/68/19 24/70/22
f 24/71/22 23/69/19 21/62/18 22/64/23
f 22/65/23 18/52/24 20/59/21 24/72/22
f 18/53/24 17/50/17 19/57/20 20/60/21
f 22/66/23 21/63/18 17/51/17 18/54/24
o Cube.003
v -0.565027 1.175427 -0.187107
v -0.565027 1.722677 -0.187107
v -0.565027 1.175427 -0.415259
v -0.565027 1.722677 -0.415259
v 1.434973 1.175427 -0.187107
v 1.434973 1.722677 -0.187107
v 1.434973 1.175427 -0.415259
v 1.434973 1.722677 -0.415259
vn -1.0000 -0.0000 -0.0000
vn -0.0000 -0.0000 -1.0000
vn 1.0000 -0.0000 -0.0000
vn -0.0000 -0.0000 1.0000
vn -0.0000 -1.0000 -0.0000
vn -0.0000 1.0000 -0.0000
vt 0.375000 0.000000
vt 0.375000 1.000000
vt 0.125000 0.750000
vt 0.625000 0.000000
vt 0.625000 1.000000
vt 0.875000 0.750000
vt 0.375000 0.250000
vt 0.125000 0.500000
vt 0.625000 0.250000
vt 0.875000 0.500000
vt 0.375000 0.750000
vt 0.625000 0.750000
vt 0.375000 0.500000
vt 0.625000 0.500000
s 0
usemtl Material.002
f 25/73/25 26/76/25 28/81/25 27/79/25
f 27/79/26 28/81/26 32/86/26 31/85/26
f 31/85/27 32/86/27 30/84/27 29/83/27
f 29/83/28 30/84/28 26/77/28 25/74/28
f 27/80/29 31/85/29 29/83/29 25/75/29
f 32/86/30 28/82/30 26/78/30 30/84/30
o Cube.004
v -0.565027 1.170542 -0.335515
v -0.565027 1.170542 0.211734
v -0.565027 1.398693 -0.335515
v -0.565027 1.398693 0.211734
v 1.434973 1.170542 -0.335515
v 1.434973 1.170542 0.211734
v 1.434973 1.398693 -0.335515
v 1.434973 1.398693 0.211734
vn -1.0000 -0.0000 -0.0000
vn -0.0000 1.0000 -0.0000
vn 1.0000 -0.0000 -0.0000
vn -0.0000 -1.0000 -0.0000
vn -0.0000 -0.0000 -1.0000
vn -0.0000 -0.0000 1.0000
vt 0.375000 0.000000
vt 0.375000 1.000000
vt 0.125000 0.750000
vt 0.625000 0.000000
vt 0.625000 1.000000
vt 0.875000 0.750000
vt 0.375000 0.250000
vt 0.125000 0.500000
vt 0.625000 0.250000
vt 0.875000 0.500000
vt 0.375000 0.750000
vt 0.625000 0.750000
vt 0.375000 0.500000
vt 0.625000 0.500000
s 0
usemtl Material.002
f 33/87/31 34/90/31 36/95/31 35/93/31
f 35/93/32 36/95/32 40/100/32 39/99/32
f 39/99/33 40/100/33 38/98/33 37/97/33
f 37/97/34 38/98/34 34/91/34 33/88/34
f 35/94/35 39/99/35 37/97/35 33/89/35
f 40/100/36 36/96/36 34/92/36 38/98/36
o Cube.005
v -0.565027 5.126814 -0.187107
v -0.565027 5.960288 -0.187107
v -0.565027 5.126814 -0.415259
v -0.565027 5.960288 -0.415259
v 1.434973 5.126814 -0.187107
v 1.434973 5.960288 -0.187107
v 1.434973 5.126814 -0.415259
v 1.434973 5.960288 -0.415259
vn -1.0000 -0.0000 -0.0000
vn -0.0000 -0.0000 -1.0000
vn 1.0000 -0.0000 -0.0000
vn -0.0000 -0.0000 1.0000
vn -0.0000 -1.0000 -0.0000
vn -0.0000 1.0000 -0.0000
vt 0.375000 0.000000
vt 0.375000 1.000000
vt 0.125000 0.750000
vt 0.625000 0.000000
vt 0.625000 1.000000
vt 0.875000 0.750000
vt 0.375000 0.250000
vt 0.125000 0.500000
vt 0.625000 0.250000
vt 0.875000 0.500000
vt 0.375000 0.750000
vt 0.625000 0.750000
vt 0.375000 0.500000
vt 0.625000 0.500000
s 0
usemtl Material.002
f 41/101/37 42/104/37 44/109/37 43/107/37
f 43/107/38 44/109/38 48/114/38 47/113/38
f 47/113/39 48/114/39 46/112/39 45/111/39
f 45/111/40 46/112/40 42/105/40 41/102/40
f 43/108/41 47/113/41 45/111/41 41/103/41
f 48/114/42 44/110/42 42/106/42 46/112/42
o Cube.006
v -0.565027 5.128120 -0.335515
v -0.565027 5.128120 0.211734
v -0.565027 5.356271 -0.335515
v -0.565027 5.356271 0.211734
v 1.434973 5.128120 -0.335515
v 1.434973 5.128120 0.211734
v 1.434973 5.356271 -0.335515
v 1.434973 5.356271 0.211734
vn -1.0000 -0.0000 -0.0000
vn -0.0000 1.0000 -0.0000
vn 1.0000 -0.0000 -0.0000
vn -0.0000 -1.0000 -0.0000
vn -0.0000 -0.0000 -1.0000
vn -0.0000 -0.0000 1.0000
vt 0.375000 0.000000
vt 0.375000 1.000000
vt 0.125000 0.750000
vt 0.625000 0.000000
vt 0.625000 1.000000
vt 0.875000 0.750000
vt 0.375000 0.250000
vt 0.125000 0.500000
vt 0.625000 0.250000
vt 0.875000 0.500000
vt 0.375000 0.750000
vt 0.625000 0.750000
vt 0.375000 0.500000
vt 0.625000 0.500000
s 0
usemtl Material.002
f 49/115/43 50/118/43 52/123/43 51/121/43
f 51/121/44 52/123/44 56/128/44 55/127/44
f 55/127/45 56/128/45 54/126/45 53/125/45
f 53/125/46 54/126/46 50/119/46 49/116/46
f 51/122/47 55/127/47 53/125/47 49/117/47
f 56/128/48 52/124/48 50/120/48 54/126/48
