<?xml version="1.0" encoding="UTF-8" standalone="no"?>
<!-- Created with Inkscape (http://www.inkscape.org/) -->

<svg
   width="210mm"
   height="297mm"
   viewBox="0 0 210 297"
   version="1.1"
   id="svg6649"
   inkscape:version="1.2.2 (732a01da63, 2022-12-09)"
   sodipodi:docname="lamp.svg"
   inkscape:export-filename="lamp.png"
   inkscape:export-xdpi="96"
   inkscape:export-ydpi="96"
   xmlns:inkscape="http://www.inkscape.org/namespaces/inkscape"
   xmlns:sodipodi="http://sodipodi.sourceforge.net/DTD/sodipodi-0.dtd"
   xmlns="http://www.w3.org/2000/svg"
   xmlns:svg="http://www.w3.org/2000/svg">
  <sodipodi:namedview
     id="namedview6651"
     pagecolor="#ffffff"
     bordercolor="#000000"
     borderopacity="0.25"
     inkscape:showpageshadow="2"
     inkscape:pageopacity="0.0"
     inkscape:pagecheckerboard="0"
     inkscape:deskcolor="#d1d1d1"
     inkscape:document-units="mm"
     showgrid="false"
     inkscape:zoom="1.0255231"
     inkscape:cx="699.64296"
     inkscape:cy="-89.710317"
     inkscape:window-width="1450"
     inkscape:window-height="1030"
     inkscape:window-x="120"
     inkscape:window-y="513"
     inkscape:window-maximized="0"
     inkscape:current-layer="layer1" />
  <defs
     id="defs6646" />
  <g
     inkscape:label="Layer 1"
     inkscape:groupmode="layer"
     id="layer1">
    <ellipse
       style="fill:#008000;stroke-width:60.1086"
       id="path6826"
       cx="108.91216"
       cy="122.41216"
       rx="61.114864"
       ry="60.385136" />
    <ellipse
       style="fill:#005500;stroke-width:78.2208;fill-opacity:1"
       id="path6986"
       cx="109.45947"
       cy="121.5"
       rx="42.68919"
       ry="40.864864" />
    <path
       style="fill:#003900;fill-opacity:1;stroke-width:53.9721"
       d="m 110.55702,80.461452 -3.92231,23.351368 7.38852,0.82092 z"
       id="path10733"
       sodipodi:nodetypes="cccc" />
    <path
       style="fill:#003900;fill-opacity:1;stroke-width:53.9721"
       d="m 80.882511,90.879939 13.73842,19.285401 5.804949,-4.644 z"
       id="path10733-33"
       sodipodi:nodetypes="cccc" />
    <path
       style="fill:#003900;fill-opacity:1;stroke-width:53.9721"
       d="m 78.144115,150.86132 19.285402,-13.73843 -4.644005,-5.80494 z"
       id="path10733-33-4"
       sodipodi:nodetypes="cccc" />
    <path
       style="fill:#003900;fill-opacity:1;stroke-width:53.9721"
       d="m 153.21127,120.97131 -23.35136,-3.92231 -0.82092,7.38852 z"
       id="path10733-12"
       sodipodi:nodetypes="cccc" />
    <path
       style="fill:#003900;fill-opacity:1;stroke-width:53.9721"
       d="m 140.28664,90.944449 -19.2854,13.738421 4.64399,5.80495 z"
       id="path10733-12-2"
       sodipodi:nodetypes="cccc" />
    <path
       style="fill:#003900;fill-opacity:1;stroke-width:53.9721"
       d="m 66.861374,119.48322 23.351376,3.9223 0.82092,-7.38851 z"
       id="path10733-1"
       sodipodi:nodetypes="cccc" />
    <path
       style="fill:#003900;fill-opacity:1;stroke-width:53.9721"
       d="m 109.67928,162.75722 3.92231,-23.35137 -7.38852,-0.82092 z"
       id="path10733-3"
       sodipodi:nodetypes="cccc" />
    <path
       style="fill:#003900;fill-opacity:1;stroke-width:53.9721"
       d="m 140.99612,150.60658 -13.73842,-19.28541 -5.80495,4.644 z"
       id="path10733-3-0"
       sodipodi:nodetypes="cccc" />
    <ellipse
       style="display:inline;fill:#f2ff19;fill-opacity:1;stroke-width:73.0275"
       id="path7403"
       cx="110.00677"
       cy="122.5946"
       rx="21.709459"
       ry="20.432434" />
    <path
       style="fill:#ffffff;fill-opacity:1;stroke-width:53.9721"
       id="path10623"
       d="m 83.794885,175.67864 c -0.32611,-1.11869 -0.487014,-2.27542 -0.591834,-3.43313 -0.07884,-0.98608 -0.08255,-1.97557 -0.08963,-2.96407 0.0013,-0.93311 0.0019,-1.86621 0.0048,-2.79931 -0.033,-1.00567 0.548206,-1.75782 1.054756,-2.56228 0.369882,-0.68815 1.015019,-1.12649 1.516261,-1.69851 0.446836,-0.69699 1.099571,-0.9749 1.877587,-1.14511 0.897654,-0.12923 1.807519,-0.12103 2.712267,-0.1212 0.940657,0.004 1.881312,0.007 2.821975,0.01 0.887999,-0.11738 1.574503,0.22326 2.330968,0.62439 -6.147051,-3.17542 -3.525126,-2.26984 -2.587757,-1.37668 0.305522,0.29111 0.583821,0.62045 0.860115,0.93871 0.617363,0.77108 0.995035,1.68941 1.509218,2.52616 0.500354,0.72138 0.672301,1.54309 0.767061,2.39811 0.06738,0.91371 0.06127,1.83093 0.05785,2.74653 -0.02781,0.68125 -0.247965,1.30172 -0.625049,1.86359 -0.611066,0.60312 -1.377899,0.83355 -2.198343,0.98693 -0.873207,0.14888 -1.737196,0.13787 -2.606051,-0.002 -1.599448,-0.89941 1.798254,1.03711 2.71194,1.52925 0.113294,0.061 -0.206063,-0.15457 -0.303126,-0.23906 -0.282747,-0.24611 -0.504504,-0.50947 -0.712094,-0.819 -0.248954,-0.46712 -0.319037,-0.98521 -0.381995,-1.50221 0,0 -3.530147,-1.7551 -3.530147,-1.7551 v 0 c 0.04305,0.55825 0.102944,1.11637 0.307493,1.64329 0.813607,1.80197 3.516625,3.03878 5.06711,3.50621 0.893712,0.10788 1.797084,0.0527 2.681792,-0.11289 0.897864,-0.21263 1.738035,-0.535 2.374443,-1.23577 0.418832,-0.62727 0.678812,-1.31435 0.723556,-2.07378 0.0016,-0.92682 0.01349,-1.85452 -0.0415,-2.78023 -0.06752,-0.89739 -0.192956,-1.79162 -0.690944,-2.56486 -0.172545,-0.27233 -0.373346,-0.5278 -0.524896,-0.81234 -0.3126,-0.58694 -0.539626,-1.22957 -0.959583,-1.75905 -0.2633,-0.33771 -0.563481,-0.62945 -0.837068,-0.95685 -0.07551,-0.0904 -0.127074,-0.20089 -0.211558,-0.28293 -1.094065,-1.06236 -4.674518,0.91226 -3.933547,-2.33615 -0.780002,-0.38219 -1.557634,-0.54777 -2.431473,-0.46863 -0.941793,-0.003 -1.883585,-0.0108 -2.825382,-0.009 -0.927376,0.008 -1.86403,0.002 -2.775821,0.19519 -0.819814,0.2388 -1.51552,0.61252 -2.007486,1.33704 -0.533408,0.57322 -1.157886,1.05981 -1.538838,1.7636 -0.542642,0.86034 -1.149318,1.69098 -1.161568,2.75562 2.59e-4,0.93438 -0.0048,1.86874 -0.0019,2.80313 2.12e-4,0.99988 0.0066,2.00101 0.08426,2.99844 0.100682,1.17306 0.267062,2.33688 0.528849,3.48591 0,0 3.575158,1.69802 3.575158,1.69802 z" />
    <path
       style="fill:#ffffff;fill-opacity:1;stroke-width:53.9721"
       id="path10627"
       d="m 99.60934,171.71249 c 0.288674,-1.23917 0.83673,-2.38614 1.3705,-3.53301 0.30741,-0.86416 0.64807,-1.69525 1.2933,-2.35956 0.42792,-0.49889 0.7814,-1.08843 1.29877,-1.49995 0.6338,-0.37745 1.38193,-0.39029 2.09814,-0.42492 0.9277,-0.0275 1.85605,-0.0186 2.78402,-0.0151 0.13561,0.0214 0.27155,0.0408 0.40683,0.0642 0.54148,0.0935 0.22578,-0.001 0.66427,0.26615 0.10714,0.0654 0.4389,0.24368 0.32991,0.18144 -3.23663,-1.84827 -4.03605,-2.41425 -2.77737,-1.54332 0.56599,0.36121 0.95714,0.89726 1.38789,1.3968 0.43995,0.46585 0.98063,0.82479 1.35612,1.34727 0.3541,0.67143 0.71315,1.33525 1.02864,2.02656 0.27676,0.734 0.52395,1.47842 0.81536,2.20671 0,0 3.58322,1.6659 3.58322,1.6659 v 0 c -0.26404,-0.74424 -0.59642,-1.46584 -0.81191,-2.2285 -0.20533,-0.48463 -0.40455,-1.01509 -0.68407,-1.46246 -0.0579,-0.0927 -0.14571,-0.1659 -0.19628,-0.26285 -0.0557,-0.10681 -0.0792,-0.22754 -0.11887,-0.34131 -0.33862,-0.68265 -0.7822,-0.932 -1.3165,-1.44233 -0.52174,-0.42212 -0.7938,-1.08005 -1.36516,-1.46018 -1.44905,-0.99255 -0.48252,-0.3404 -3.98089,-2.37508 -0.46452,-0.27017 -0.97474,-0.34681 -1.50581,-0.35435 -0.93474,-0.003 -1.87012,-0.0114 -2.80415,0.0324 -0.79194,0.06 -1.59513,0.13483 -2.25167,0.62934 -0.501574,0.45588 -0.886405,1.0202 -1.317631,1.54104 -0.644675,0.72098 -1.027551,1.56894 -1.328634,2.48443 -0.529325,1.17336 -1.077587,2.33997 -1.434563,3.58067 0,0 3.476538,1.88004 3.476538,1.88004 z" />
    <path
       style="fill:#ffffff;fill-opacity:1;stroke-width:53.9721"
       id="path10633"
       d="m 106.66993,172.8062 c 0.44539,1.25264 0.95363,2.48596 1.52286,3.6875 0.36986,0.89739 0.93957,1.68013 1.57746,2.40287 1.62665,1.73065 3.47622,2.42557 5.61605,2.50827 0.92225,0.0211 1.84492,0.01 2.76729,0.003 1.21921,0.0896 1.74411,-0.12918 2.76364,-0.74815 0.67719,-0.56114 1.23241,-1.29387 1.73392,-2.01797 0.44217,-0.73722 0.81008,-1.50602 1.12273,-2.30524 0.30455,-0.78753 0.80749,-1.489 1.22812,-2.22255 0.318,-0.89295 0.86014,-1.65541 1.30778,-2.47788 0.36733,-0.63538 0.75535,-1.27349 1.01512,-1.96163 0.25939,-0.83419 0.59566,-1.64633 0.90487,-2.46475 0.32207,-0.7261 0.66474,-1.45236 0.9164,-2.20666 0.27001,-0.62819 0.73458,-1.11809 1.16957,-1.6303 0.51454,-0.42539 0.99292,-0.91165 1.43913,-1.41092 0.4998,-0.51017 1.24726,-0.54253 1.91896,-0.59812 0.89197,-0.0512 1.78599,-0.0425 2.67901,-0.0384 0.91141,-0.0162 1.80864,-0.0189 2.70742,0.13597 0.41587,0.25364 0.21044,0.12594 0.61637,0.38296 0,0 -3.07506,-2.48299 -3.07506,-2.48299 v 0 c -0.44158,-0.21623 -0.20932,-0.12612 -0.69841,-0.26613 -0.90944,-0.11572 -1.82362,-0.0792 -2.73867,-0.0873 -0.90138,5.3e-4 -1.80491,-0.009 -2.70363,0.071 -0.76793,0.0923 -1.55029,0.22468 -2.09154,0.83235 -0.45465,0.4995 -0.93378,0.97996 -1.44652,1.4199 -0.46859,0.55051 -0.93795,1.10046 -1.23647,1.76833 -0.24325,0.75188 -0.58412,1.47406 -0.89989,2.19743 -0.30452,0.82005 -0.65088,1.62888 -0.91804,2.45845 -0.24607,0.67286 -0.628,1.2952 -0.97681,1.91868 -0.44657,0.8196 -0.9783,1.58472 -1.30185,2.47066 -0.43207,0.74866 -0.95243,1.46318 -1.2595,2.27078 -0.30653,0.76815 -0.64421,1.52034 -1.08119,2.22538 -0.46773,0.67967 -0.98289,1.37586 -1.63817,1.87882 -0.96209,0.56531 -1.53151,0.62925 -2.64255,0.57651 -0.919,0.003 -1.83871,0.0169 -2.75708,-0.0253 -0.41494,-0.0304 -0.83251,-0.0548 -1.23439,-0.1732 -0.11693,-0.0344 -0.44697,-0.18999 -0.34343,-0.12567 0.91579,0.56886 4.27227,2.56139 2.78632,1.64218 -0.69263,-0.64504 -1.27932,-1.43779 -1.65797,-2.30499 -0.60285,-1.15374 -1.06815,-2.37927 -1.52741,-3.59549 0,0 -3.56444,-1.70752 -3.56444,-1.70752 z" />
    <path
       style="fill:#ffffff;fill-opacity:1;stroke-width:53.9721"
       id="path10635"
       d="m 146.77032,146.86874 c 1.13849,0.26838 2.26752,0.57834 3.38314,0.93068 0.15393,0.043 0.31473,0.0665 0.4618,0.12914 0.26141,0.11127 0.4944,0.28006 0.74214,0.41914 0.12791,0.0718 0.50428,0.29982 0.37668,0.22748 -2.9043,-1.64654 -3.98046,-2.3393 -2.61075,-1.46813 0.90565,0.45911 1.5619,1.1708 2.08372,2.02481 0.39425,0.83327 0.94671,1.57541 1.33641,2.40951 0.37007,1.11494 0.38108,2.30702 0.41302,3.47018 0.0654,1.11274 -0.0364,2.20663 -0.30281,3.28608 -0.21673,0.90815 -0.4572,1.8119 -0.74844,2.6992 -0.23383,0.73824 -0.70436,1.38655 -1.08752,2.05884 -0.43289,0.90758 -1.07371,1.65673 -1.6814,2.44438 -0.57142,0.57986 -1.20817,1.1277 -1.99617,1.36903 -0.94781,0.19682 -1.92639,0.1826 -2.89046,0.19064 -1.29226,0.005 -2.5845,0.004 -3.87675,-0.003 -1.18791,-0.006 -2.37585,-0.004 -3.56377,-0.008 -0.99019,-0.003 -1.98038,-0.002 -2.97057,-0.002 -0.57367,0.0751 -0.29479,0.0329 -0.83688,0.12498 0,0 3.22934,2.27109 3.22934,2.27109 v 0 c 0.51636,-0.0723 0.25262,-0.0441 0.79142,-0.0829 0.98803,-5.3e-4 1.97607,5.3e-4 2.96411,-0.002 1.18409,-0.003 2.36817,2.1e-4 3.55226,5.3e-4 1.29806,-5.3e-4 2.59609,0.0113 3.89412,0.009 0.99572,-0.0145 2.01674,-0.009 2.97996,-0.28929 0.81974,-0.33701 1.50452,-0.91696 2.1026,-1.5651 0.62173,-0.79928 1.26042,-1.57448 1.71716,-2.48665 0.39977,-0.69334 0.89637,-1.36173 1.12903,-2.12929 0.28734,-0.89911 0.53508,-1.81108 0.75424,-2.72896 0.26977,-1.11286 0.41333,-2.23799 0.33416,-3.38607 -0.022,-1.20349 -0.0526,-2.41687 -0.32289,-3.59539 -0.35354,-0.87623 -0.92683,-1.6016 -1.32819,-2.4526 -0.4742,-0.8922 -1.0775,-1.73361 -2.00082,-2.20252 -1.85687,-1.12339 -3.67166,-2.46398 -5.75386,-3.13649 -1.12818,-0.34261 -2.27248,-0.63116 -3.41366,-0.9266 0,0 3.13963,2.40075 3.13963,2.40075 z" />
    <path
       style="fill:#ffffff;fill-opacity:1;stroke-width:53.9721"
       id="path10639"
       d="m 149.96069,146.17195 c 0.31132,-1.19825 0.73059,-2.3577 1.25375,-3.47809 0.39766,-0.88236 0.69605,-1.86225 1.37022,-2.57767 0.53019,-0.76134 1.25411,-1.19404 2.06319,-1.59389 0.81922,-0.38036 1.72352,-0.46759 2.61358,-0.52091 0.93207,-0.0381 1.86523,-0.0307 2.79784,-0.0262 0.40766,0.0147 0.89101,-0.0138 1.28339,0.13385 0.22272,0.0838 0.80909,0.5008 0.6015,0.38448 -1.04174,-0.58375 -2.0761,-1.18054 -3.11415,-1.77081 0.67648,0.44398 1.01913,0.82515 1.2485,1.60498 0.16498,0.68722 0.0978,1.37915 -0.25552,1.99219 -0.26455,0.61341 -0.67963,1.1107 -1.10066,1.62113 -0.27971,0.27181 -0.13131,0.15207 -0.44276,0.36217 0,0 3.345,2.11905 3.345,2.11905 v 0 c 0.34666,-0.27578 0.18316,-0.12691 0.49044,-0.44669 0.4342,-0.52688 0.85575,-1.05272 1.13933,-1.67826 0.38986,-0.6974 0.52306,-1.47233 0.38536,-2.26449 -0.16536,-0.77197 -0.39649,-1.44358 -1.14042,-1.83171 -2.4705,-1.49381 -3.18477,-2.56811 -5.62745,-2.54284 -0.93785,1.5e-4 -1.87684,-0.008 -2.8133,0.0515 -0.9286,0.0792 -1.8606,0.22072 -2.70184,0.64725 -0.84245,0.42663 -1.57497,0.94505 -2.14243,1.71698 -0.67629,0.77391 -1.02169,1.75116 -1.41057,2.69146 -0.52541,1.145 -0.94667,2.32273 -1.31954,3.52649 0,0 3.47654,1.88004 3.47654,1.88004 z" />
    <path
       style="fill:#ffffff;fill-opacity:1;stroke-width:53.9721"
       id="path10641"
       d="m 163.24578,138.82311 c -1.14396,-1.25929 -2.20982,-2.592 -3.29,-3.90717 -1.06681,-1.44614 -2.15566,-2.89144 -3.01257,-4.475 -0.50741,-1.13543 -1.11752,-2.22467 -1.55479,-3.39035 -0.31463,-0.89259 -0.36371,-1.83946 -0.39337,-2.7763 -0.009,-0.81522 0.25114,-1.55976 0.58521,-2.2886 0.3784,-0.54653 1.03566,-0.7511 1.5328,-1.14776 0.64347,-0.49764 1.4416,-0.55387 2.20133,-0.73897 0.87894,-0.22372 1.78524,-0.29384 2.68804,-0.33649 0.94723,0.0222 1.87759,-0.15798 2.8149,-0.2667 0.50635,-0.18788 1.06294,-0.20204 1.57763,-0.34627 0.30503,-0.0855 0.5928,-0.22361 0.88937,-0.33496 0.81722,-0.42924 1.71214,-0.64867 2.58014,-0.94582 0.63232,-0.1664 1.23867,-0.50106 1.79085,-0.85284 0,0 -3.32156,-2.14437 -3.32156,-2.14437 v 0 c -0.54786,0.32244 -1.11775,0.63042 -1.73826,0.78523 -0.86482,0.30475 -1.75052,0.5475 -2.57575,0.95624 -0.78654,0.27877 -1.60152,0.43756 -2.4179,0.60562 -0.93003,0.11864 -1.85766,0.25297 -2.79803,0.24658 -0.91871,0.0571 -1.83587,0.1606 -2.72961,0.38973 -0.81566,0.17606 -1.62939,0.33514 -2.30404,0.86613 -0.58264,0.39412 -1.24322,0.70065 -1.63105,1.3218 -0.35482,0.78375 -0.64086,1.58072 -0.65628,2.45402 0.0226,0.97152 0.0506,1.95671 0.3438,2.89194 0.41809,1.19879 1.05313,2.29243 1.56473,3.45142 0.81275,1.63583 1.96843,3.06687 3.00756,4.56177 1.06855,1.2977 2.13349,2.59838 3.18911,3.90603 0,0 3.65774,1.51509 3.65774,1.51509 z" />
    <path
       style="fill:#ffffff;fill-opacity:1;stroke-width:53.9721"
       id="path10645"
       d="m 156.98654,120.59847 c 1.19219,0.30775 2.3782,0.75945 3.47801,1.32096 0.15014,0.0741 0.59506,0.30652 0.45041,0.22222 -0.9986,-0.58202 -4.00676,-2.30649 -3.01319,-1.7159 1.23561,0.73444 2.51625,1.39256 3.7394,2.14756 0.99236,0.61253 -2.02008,-1.16647 -3.04657,-1.71992 -0.21928,-0.11822 0.38666,0.31451 0.57242,0.48051 0.57025,0.44765 0.83911,0.96642 0.97872,1.66458 0.10549,0.72874 0.10178,1.46713 0.11001,2.2017 0,0 3.5099,1.78601 3.5099,1.78601 v 0 c 2.7e-4,-0.75179 -0.005,-1.50471 -0.0714,-2.25416 -0.10442,-0.73659 -0.23948,-1.42069 -0.87571,-1.88804 -1.16603,-1.26907 -2.75832,-1.71652 -4.24942,-2.74571 -0.95536,-0.65941 4.0216,2.32091 3.01049,1.75066 -4.54908,-2.56559 -2.36586,-1.49991 -4.18432,-2.3761 -1.1461,-0.51336 -2.32618,-0.97931 -3.54838,-1.27512 0,0 3.13964,2.40075 3.13964,2.40075 z" />
    <path
       style="fill:#ffffff;fill-opacity:1;stroke-width:53.9721"
       id="path10647"
       d="m 159.09687,116.48323 c -0.13037,-0.0746 -0.52133,-0.29868 -0.39111,-0.22381 7.50975,4.31746 -1.0624,-0.61381 -1.15894,-0.66816 -0.63982,-0.36017 -1.30908,-0.68864 -1.95878,-1.03317 -1.23668,-0.59791 -3.63679,-1.90659 1.91795,1.14018 0.14856,0.0815 -0.28335,-0.186 -0.4218,-0.28368 -0.39267,-0.27702 -0.3293,-0.23796 -0.6662,-0.54826 -0.55737,-0.64945 -0.6338,-1.48915 -0.68667,-2.30813 -0.0379,-0.92848 -0.0179,-1.85786 -0.0147,-2.78675 0.046,-0.863 -0.0217,-1.71193 -0.26493,-2.54098 -0.19011,-0.44187 -0.41965,-0.86407 -0.65188,-1.28461 0,0 -3.59804,-1.59911 -3.59804,-1.59911 v 0 c 0.2467,0.39641 0.44021,0.81176 0.67715,1.21363 0.32214,0.75891 0.35288,1.60497 0.33068,2.42133 -0.009,0.93543 -0.0178,1.87129 0.002,2.8066 0.0382,0.88602 0.0965,1.78242 0.56455,2.56356 0.32183,0.36655 0.64894,0.6604 1.07092,0.91308 1.58819,0.951 3.12358,1.94987 4.78818,2.74341 0.41829,0.22429 0.83508,0.4514 1.25435,0.67386 0.23144,0.1228 0.92106,0.49928 0.69637,0.36452 -6.05855,-3.63358 -0.65209,-0.20977 1.60466,0.91086 0,0 -3.09333,-2.47437 -3.09333,-2.47437 z" />
    <path
       style="fill:#ffffff;fill-opacity:1;stroke-width:53.9721"
       id="path10649"
       d="m 141.41637,153.43365 c 0.52469,0.48312 0.84976,1.10559 1.14761,1.74137 0,0 3.57018,1.63553 3.57018,1.63553 v 0 c -0.27637,-0.66101 -0.57043,-1.32624 -1.06004,-1.86182 0,0 -3.65775,-1.51508 -3.65775,-1.51508 z" />
    <path
       style="fill:#ffffff;fill-opacity:1;stroke-width:53.9721"
       id="path10651"
       d="m 162.8515,93.951977 c -1.45425,-1.114788 -3.0906,-1.872364 -4.67732,-2.825023 -0.95781,-0.575061 3.86648,2.240217 2.90784,1.666531 -1.86154,-1.114025 -7.30994,-4.188166 -0.82059,-0.512085 -1.62263,-1.072774 -0.44016,-0.304019 -4.22408,-2.456264 -0.99764,-0.567452 3.98006,2.288227 2.9867,1.713304 -2.91871,-1.689243 -2.67905,-1.687812 -4.53783,-2.452468 -0.95453,-0.342969 -1.98716,-0.415602 -2.99382,-0.458042 -1.09433,-0.03396 -2.18951,-0.03571 -3.2843,-0.03306 -0.6456,0.03051 -1.34118,0.03074 -1.97384,0.188777 -0.18942,0.04732 -0.66477,0.267409 -0.8512,0.35037 -0.79917,0.336645 -1.62174,0.604824 -2.47474,0.764251 -0.9602,0.15457 -1.93536,0.156319 -2.90521,0.167537 -0.59501,-0.03908 -1.2042,0.06296 -1.79799,0.0043 -0.54081,-0.05339 -1.08597,-0.251547 -1.59564,-0.426717 -1.24017,-0.625446 -3.53638,-1.904595 2.03546,1.19839 0.14879,0.08286 -0.28495,-0.186811 -0.42302,-0.286509 -0.34203,-0.246965 -0.51483,-0.401053 -0.83916,-0.671883 -0.63959,-0.675576 -1.21876,-1.399114 -1.85875,-2.075251 -0.62946,-0.710684 -0.9134,-1.606992 -1.11366,-2.515831 -0.19607,-1.091533 -0.2083,-2.204474 -0.21864,-3.310122 -0.11307,-1.215864 0.26947,-1.764009 0.91998,-2.705598 0.70829,-0.76305 1.59608,-1.139142 2.59042,-1.36045 0.46093,-0.09127 0.93045,-0.110609 1.39819,-0.134673 0,0 -3.1997,-2.292937 -3.1997,-2.292937 v 0 c -0.48236,0.03815 -0.96677,0.07264 -1.43759,0.193331 -1.05776,0.292134 -2.00468,0.761325 -2.7435,1.599205 -0.62742,0.906007 -1.16676,1.760791 -1.03121,2.92101 0.0148,1.127112 0.0225,2.259349 0.18373,3.377192 0.18559,0.960808 0.43631,1.898999 1.01103,2.709254 0.65012,0.685292 1.29425,1.35876 1.85928,2.119646 1.7568,1.544484 3.7954,2.779538 5.97164,3.638875 1.14147,0.328179 2.28447,0.38811 3.4698,0.323308 0.98843,-0.01431 1.98344,-0.0258 2.95633,-0.22202 0.86655,-0.191172 1.70999,-0.473406 2.52437,-0.82637 0.86538,-0.350679 1.79557,-0.427874 2.7251,-0.416163 1.08879,2.64e-4 2.17836,-0.0088 3.26608,0.04851 0.99417,0.07368 2.00255,0.168928 2.92707,0.571701 0.26259,0.108259 1.02336,0.489923 0.77923,0.344746 -0.99863,-0.593857 -4.02654,-2.320676 -3.01554,-1.748128 12.57667,7.12235 -2.21675,-1.181859 1.25464,0.713713 1.25258,0.748038 2.54035,1.44008 3.75774,2.24412 0.94581,0.624662 -3.91667,-2.283699 -2.94189,-1.705285 1.26388,0.749961 2.53825,1.482111 3.80925,2.219952 0.95559,0.554741 -1.90458,-1.12086 -2.86303,-1.670645 -0.15603,-0.08951 0.31006,0.183562 0.4554,0.289576 0.1227,0.08951 0.23119,0.197059 0.34678,0.295589 0,0 3.68619,1.4423 3.68619,1.4423 z" />
    <path
       style="fill:#ffffff;fill-opacity:1;stroke-width:53.9721"
       id="path10653"
       d="m 133.11276,79.35914 c -0.19498,-1.196713 -0.55551,-2.370532 -0.94689,-3.517879 -0.21913,-0.815821 -0.70644,-1.509313 -1.17923,-2.195137 -1.24299,-1.696923 -3.10464,-2.878764 -5.15474,-3.455781 -0.91945,-0.160665 -1.82899,-0.357457 -2.76003,-0.444214 -1.16301,-0.104328 -2.33093,-0.113792 -3.49764,-0.110696 -1.60987,0.05698 -3.21153,-0.06096 -4.81585,-0.171421 -1.31763,-0.083 -2.63646,-0.138758 -3.95609,-0.175612 0,0 3.15899,2.307725 3.15899,2.307725 v 0 c 1.30884,0.03154 2.61744,0.08053 3.92358,0.172789 1.61462,0.113699 3.22626,0.203284 4.84604,0.163565 1.16507,0.02021 2.33257,0.03161 3.49226,0.158051 0.91324,0.122304 1.82895,0.281171 2.71646,0.528437 1.40935,0.645226 0.77493,0.370287 -2.653,-1.609175 -0.11276,-0.06511 0.22156,0.137938 0.32353,0.218922 0.44101,0.350263 0.15335,0.159745 0.50177,0.59042 0.075,0.09269 0.16818,0.169032 0.25227,0.253548 0.47574,0.658032 0.99819,1.32326 1.24109,2.103469 0.40031,1.105884 0.75208,2.234618 0.98466,3.388024 0,0 3.52282,1.794965 3.52282,1.794965 z" />
    <path
       style="fill:#ffffff;fill-opacity:1;stroke-width:53.9721"
       id="path10657"
       d="m 90.063779,64.207215 c -0.678055,0.916654 -1.242753,1.901377 -1.878761,2.845741 -0.568156,0.794092 -0.769019,1.713178 -0.867151,2.665056 -0.09503,0.935222 -0.06955,1.863153 0.128157,2.782014 0.19468,0.739069 0.439774,1.463027 0.720378,2.173576 0.348438,0.838068 0.979141,1.506744 1.496126,2.24033 0.618286,0.884383 1.48014,1.517208 2.343753,2.139569 2.079797,1.550366 3.787696,2.536899 6.188422,2.717419 0.971709,0.07591 1.938507,-0.212688 2.785027,-0.675381 0.90728,-0.410612 1.55031,-1.178962 2.02106,-2.033534 0.42757,-0.788022 0.91828,-1.536597 1.34671,-2.324952 0.42559,-0.88673 0.5618,-1.850567 0.63356,-2.81967 0.11755,-0.963737 -0.0142,-1.803723 -0.64365,-2.555875 -2.81851,-1.900348 -3.3051,-2.393132 -5.965497,-2.477955 -0.92438,-0.120174 -1.686473,0.182454 -2.470857,0.625726 0,0 3.311763,2.158376 3.311763,2.158376 v 0 c 0.742935,-0.405725 1.484001,-0.558477 2.335351,-0.45524 0.45991,0.02548 0.92068,0.04698 1.37171,0.149977 1.31258,0.299738 3.40467,1.99409 -2.23216,-1.508509 0.74419,0.590037 0.90866,1.326719 0.79695,2.252205 -0.0556,0.91436 -0.15706,1.831655 -0.55279,2.671458 -0.42554,0.789559 -0.933727,1.526929 -1.344135,2.324113 -0.436322,0.801225 -1.054362,1.460508 -1.902934,1.832052 -0.828617,0.400405 -1.730216,0.607396 -2.652604,0.494422 -2.119133,-0.235707 -3.482094,-1.412878 1.067276,1.308975 0.143256,0.08571 -0.29156,-0.162681 -0.43734,-0.244022 -0.868257,-0.5875 -1.723813,-1.192102 -2.398302,-2.006828 -0.481288,-0.73746 -1.108716,-1.377376 -1.498632,-2.16848 -0.347229,-0.664554 -0.527042,-1.408252 -0.761445,-2.116854 -0.265078,-0.866357 -0.264644,-1.7633 -0.194288,-2.661248 0.08015,-0.891389 0.237016,-1.752015 0.765016,-2.500897 0.626136,-0.951619 1.181452,-1.944971 1.904465,-2.830375 0,0 -3.415178,-2.001189 -3.415178,-2.001189 z" />
    <path
       style="fill:#ffffff;fill-opacity:1;stroke-width:53.9721"
       id="path10659"
       d="m 84.711563,67.316534 c 0.02508,1.187466 0.01797,2.375358 0.01207,3.562993 0.04487,0.923015 -0.05046,1.835584 -0.249629,2.735705 -0.1568,0.90466 -0.553374,1.722606 -0.941454,2.544759 -0.391234,1.005967 -0.95963,1.909657 -1.594384,2.777255 -0.742188,0.878295 -1.677038,1.553369 -2.579778,2.252625 -0.730215,0.606899 -1.517748,1.098741 -2.376411,1.504336 -0.850373,0.456425 -1.778852,0.635847 -2.726999,0.73813 -0.868598,0.04362 -1.750396,0.10197 -2.563122,0.427082 -0.794364,0.313785 -1.604552,0.571672 -2.388267,0.912474 -0.856652,0.244742 -1.617107,0.666967 -2.340554,1.182248 -0.927219,0.67141 -1.752444,1.486337 -2.567567,2.288929 -0.797602,0.778553 -1.519634,1.607463 -2.200849,2.486835 -0.07864,0.114231 -0.157276,0.22846 -0.235913,0.342688 0,0 3.402944,1.998311 3.402944,1.998311 v 0 c 0.07339,-0.109249 0.14678,-0.218496 0.22017,-0.327742 0.653185,-0.874237 1.370753,-1.682888 2.149435,-2.44946 0.812763,-0.780068 1.620578,-1.586653 2.555351,-2.220354 0.715857,-0.483722 1.472417,-0.852546 2.29783,-1.111329 0.784127,-0.316373 1.579972,-0.597549 2.372111,-0.892789 0.819997,-0.235276 1.664621,-0.300628 2.512682,-0.362106 0.977561,-0.138512 1.924428,-0.37614 2.802294,-0.844913 0.864167,-0.439171 1.669942,-0.951505 2.411688,-1.578094 0.925267,-0.726059 1.878288,-1.435296 2.631575,-2.349076 0.646816,-0.889278 1.23948,-1.808118 1.644018,-2.835551 0.395001,-0.847516 0.823944,-1.683676 0.986276,-2.614236 0.22632,-0.925373 0.323025,-1.869959 0.27722,-2.823067 -0.0058,-1.183532 -0.01318,-2.367331 0.01206,-3.550688 0,0 -3.522818,-1.794965 -3.522818,-1.794965 z" />
    <path
       style="fill:#ffffff;fill-opacity:1;stroke-width:53.9721"
       id="path10661"
       d="m 84.098076,79.342278 c -0.726279,-0.784439 -1.344065,-1.650929 -1.937504,-2.537799 -0.409546,-0.76404 -0.883531,-1.50446 -1.23072,-2.300753 -0.198945,-0.525989 -0.264456,-1.082394 -0.320625,-1.637416 0,0 -3.526038,-1.759564 -3.526038,-1.759564 v 0 c 0.03949,0.58615 0.09712,1.172086 0.269674,1.73708 0.288938,0.851355 0.836975,1.568481 1.202253,2.384528 0.590365,0.876562 1.14567,1.795232 1.916573,2.527257 0,0 3.626387,1.586667 3.626387,1.586667 z" />
    <path
       style="fill:#ffffff;fill-opacity:1;stroke-width:53.9721"
       id="path10663"
       d="m 67.195477,93.541849 c 0.02712,1.155523 0.01842,2.311662 0.01553,3.467433 0.01296,1.009441 0.04772,1.996252 -0.189643,2.980899 -0.215101,0.973159 -0.78437,1.671729 -1.422815,2.399639 -0.715201,0.74198 -1.511081,1.40771 -2.283114,2.09341 -0.839872,0.58382 -1.588071,1.27553 -2.398384,1.89811 -0.744614,0.56548 -1.397042,1.10399 -2.195356,1.60617 -0.414362,0.24058 -0.888429,0.37649 -1.308682,0.6013 -0.417433,0.2233 -0.771279,0.56635 -1.160942,0.83327 -0.712406,0.44382 -1.238289,1.08023 -1.8073,1.68206 -0.624004,0.61202 -1.111636,1.33979 -1.542579,2.09571 -0.356407,0.80897 -0.913759,1.49172 -1.279133,2.29862 -0.359691,0.8642 -0.423611,1.79879 -0.461947,2.7226 -0.07074,0.87923 -0.05139,1.67582 0.646785,2.28397 3.000552,1.87795 3.02877,2.12751 5.520764,2.17139 0,0 -3.178937,-2.32383 -3.178937,-2.32383 v 0 c -2.092378,-0.0856 -3.405688,-1.03638 1.345025,1.58811 -0.919234,-0.40953 -0.88346,-0.99631 -0.833255,-1.91858 0.03312,-0.87486 0.0686,-1.76352 0.393777,-2.58855 0.353653,-0.7976 0.91912,-1.46261 1.266354,-2.26202 0.415846,-0.72948 0.877559,-1.43543 1.494218,-2.01453 0.550328,-0.58177 1.067708,-1.18923 1.756387,-1.61876 0.251306,-0.17806 0.489188,-0.37494 0.744288,-0.54751 0.53366,-0.36102 1.169226,-0.53349 1.717196,-0.8711 0.781355,-0.49565 1.474206,-1.08591 2.210983,-1.64047 0.812496,-0.63233 1.574612,-1.32211 2.414125,-1.91997 0.782383,-0.69575 1.581872,-1.38048 2.303467,-2.13763 0.702202,-0.79638 1.261486,-1.50043 1.519703,-2.55967 0.05532,-0.2128 0.20786,-0.76619 0.230437,-0.98651 0.07041,-0.68712 -0.05798,-1.39551 -0.0045,-2.084368 -0.0029,-1.15049 -0.01175,-2.301367 0.01553,-3.451606 0,0 -3.527964,-1.797587 -3.527964,-1.797587 z" />
    <path
       style="fill:#ffffff;fill-opacity:1;stroke-width:53.9721"
       id="path10665"
       d="m 61.912891,114.83194 c -0.686512,0.61142 -1.30437,1.22696 -1.775489,2.02039 0,0 3.403457,1.96919 3.403457,1.96919 v 0 c 0.443441,-0.75754 1.047369,-1.33835 1.725221,-1.8927 0,0 -3.353189,-2.09688 -3.353189,-2.09688 z" />
    <path
       style="fill:#ffffff;fill-opacity:1;stroke-width:53.9721"
       id="path10667"
       d="m 59.533316,95.366172 c 0.03001,1.137005 0.05382,2.27203 -0.08102,3.402666 -0.136695,0.621694 -0.58592,1.065295 -0.885582,1.602922 0,0 3.425433,1.97173 3.425433,1.97173 v 0 c 0.326808,-0.5802 0.798153,-1.07351 0.942367,-1.74845 0.133792,-1.14177 0.110408,-2.283196 0.126762,-3.431278 0,0 -3.527962,-1.79759 -3.527962,-1.79759 z" />
    <path
       style="fill:#ffffff;fill-opacity:1;stroke-width:53.9721"
       id="path10669"
       d="m 141.48472,81.295781 c -1.08815,0.0155 -2.17649,0.01167 -3.26471,0.0087 -0.18419,-0.204822 -1.6938,0.781002 -1.24683,1.093912 1.13837,0.796946 2.37254,1.447456 3.55881,2.171184 0.80755,0.129725 1.62977,0.139567 2.44601,0.147084 0.92919,0.04453 1.87076,-0.08141 2.79202,0.06086 -0.28034,-0.338595 1.44707,0.588693 0.98177,0.316571 -5.38188,-3.147517 -3.57174,-2.293569 -2.60365,-1.280075 0.49393,0.475604 0.76653,1.050242 1.0417,1.661853 0.23797,0.428413 0.12209,0.208714 0.34682,0.659524 0,0 3.58983,1.642764 3.58983,1.642764 v 0 c -0.19495,-0.486368 -0.0824,-0.259609 -0.3311,-0.683485 -0.20651,-0.322022 -0.24214,-0.650677 -0.41692,-0.984695 -0.13586,-0.259633 -0.2093,-0.25918 -0.38732,-0.485841 -0.071,-0.0904 -0.12996,-0.189645 -0.19494,-0.284469 -0.16197,-0.177266 -0.26066,-0.424175 -0.46514,-0.550074 -1.56606,-0.964271 -2.9292,-2.150081 -4.72894,-2.364121 -0.93402,-0.05171 -1.87071,-0.0013 -2.80573,-0.02923 -0.7821,-0.02125 -1.63009,0.0172 -2.35085,-0.323096 1.05372,0.6482 2.12852,1.263312 3.16115,1.9446 0.0482,0.03182 -0.12017,0.05561 -0.17102,0.02818 -0.0968,-0.05224 0.1237,-0.193564 0.22079,-0.245269 0.2939,-0.156509 0.40412,-0.138549 0.74295,-0.186193 1.0962,-0.003 2.1925,-0.0066 3.28862,0.0087 0,0 -3.20332,-2.327352 -3.20332,-2.327352 z" />
    <path
       style="fill:#ffffff;fill-opacity:1;stroke-width:53.9721"
       id="path10671"
       d="m 61.448489,156.33662 c -0.911691,-0.74369 -1.642351,-1.65666 -2.346386,-2.59072 -0.571347,-0.80239 -1.115915,-1.63333 -1.489157,-2.54754 -0.315643,-0.85639 -0.366284,-1.76756 -0.397248,-2.67017 -0.109924,-0.84388 0.191566,-1.55355 0.543967,-2.28925 0.3663,-0.70613 1.1234,-0.8161 1.841365,-0.90849 0.913419,-0.12217 1.839079,-0.22188 2.744203,-0.40211 0.994246,-0.19239 1.759794,-0.78641 2.539363,-1.39292 0.653401,-0.75335 1.472009,-1.33492 2.088366,-2.11927 0.569238,-0.80025 0.709454,-1.75169 0.796888,-2.70447 0.10694,-0.94434 -0.250118,-1.78025 -0.878033,-2.46398 -1.901888,-1.69288 -4.25405,-2.78411 -6.521357,-3.90656 -1.24134,-0.52555 -2.539794,-0.91852 -3.89359,-0.93011 -1.044366,0.0433 -2.157952,0.18138 -3.028071,0.79779 -0.773642,0.45276 -1.29063,1.0857 -1.620086,1.90756 -0.316426,0.90382 -0.348174,1.76806 0.102446,2.62224 0.193599,0.33887 0.456441,0.58369 0.75814,0.8209 0,0 3.685484,1.42371 3.685484,1.42371 v 0 c -0.352755,-0.15643 -0.615796,-0.32219 -0.828646,-0.65948 -0.611602,-0.74729 -0.534035,-1.40018 -0.272491,-2.28675 0.288954,-0.75643 0.793001,-1.29071 1.497454,-1.69703 0.858427,-0.50757 1.887085,-0.61778 2.868785,-0.61058 1.319598,0.10165 2.586421,0.4865 3.784303,1.04766 1.644285,0.77531 0.661517,0.33811 -2.087655,-1.33639 -0.180649,-0.11003 0.368596,0.20762 0.552172,0.3127 0.498809,0.28552 0.935953,0.61059 1.354937,1.00633 0.678034,0.48969 1.104614,1.28427 1.028956,2.13406 -0.06224,0.87772 -0.156715,1.76273 -0.678754,2.50342 -0.606827,0.74816 -1.389366,1.32869 -2.041586,2.03624 -0.746564,0.5673 -1.475388,1.10028 -2.430891,1.23921 -0.912397,0.14623 -1.828792,0.27254 -2.745165,0.39076 -0.837518,0.15412 -1.638663,0.41413 -2.052672,1.22583 -0.37913,0.78306 -0.715997,1.56272 -0.625547,2.46058 0.02716,0.93871 0.05878,1.88874 0.34716,2.79103 0.3389,0.95779 0.86972,1.81645 1.447977,2.64655 0.68235,0.9436 1.393238,1.89031 2.297623,2.63416 0,0 3.657746,1.51509 3.657746,1.51509 z" />
    <path
       style="fill:#ffffff;fill-opacity:1;stroke-width:53.9721"
       id="path10673"
       d="m 75.195196,149.85738 c 1.564487,0.98665 -0.663061,-0.42854 -2.420162,-1.33001 -0.173014,-0.0888 0.309557,0.23671 0.450128,0.37107 0.402407,0.38463 0.650293,0.82123 0.89051,1.31453 0.318112,0.83153 0.490482,1.70813 0.185595,2.55869 -0.450699,0.92754 -1.340757,1.49965 -2.038207,2.22526 -0.843812,0.686 -1.675291,1.3838 -2.483109,2.11226 -0.803712,0.85585 -1.663759,1.65782 -2.573526,2.39933 -0.718547,0.69995 -1.335955,1.43056 -1.763368,2.34196 -0.387863,0.84841 -0.323924,1.65699 0.06168,2.48064 0.990618,1.79344 2.911056,2.79489 4.871042,3.39361 0.870149,0.17799 1.775349,0.22728 2.65765,0.12933 0.157633,-0.0218 0.315267,-0.0435 0.4729,-0.0653 0,0 -3.214079,-2.27482 -3.214079,-2.27482 v 0 c -0.153781,0.017 -0.307559,0.0341 -0.461341,0.0511 -0.859091,0.0368 -1.743855,0.005 -2.563481,-0.27829 -1.384205,-0.65589 -0.577903,-0.28617 2.716577,1.64388 0.09899,0.058 -0.204367,-0.10897 -0.290142,-0.18517 -0.223708,-0.19872 -0.211463,-0.31819 -0.382362,-0.55776 -0.05922,-0.083 -0.13529,-0.15261 -0.202936,-0.22892 -0.427659,-0.77572 -0.610886,-1.29992 -0.237244,-2.17087 0.390988,-0.86635 0.993638,-1.53685 1.674278,-2.19298 0.890051,-0.76885 1.747242,-1.57511 2.566721,-2.41912 0.817763,-0.73209 1.678199,-1.41086 2.505919,-2.13075 0.738359,-0.75987 1.659805,-1.37503 2.128115,-2.35789 0.405368,-1.02322 0.250772,-1.80188 -0.05546,-2.83793 -1.018788,-2.48197 -3.109682,-3.17817 -5.599398,-4.44477 0,0 3.1037,2.4529 3.1037,2.4529 z" />
    <path
       style="fill:#ffffff;fill-opacity:1;stroke-width:53.9721"
       id="path10675"
       d="m 118.06502,76.082296 c 0.73789,0.678567 1.61075,1.189657 2.43062,1.762144 0.59237,0.43634 1.08792,1.028308 1.43287,1.677128 0,0 3.58919,1.643491 3.58919,1.643491 v 0 c -0.2197,-0.592371 -0.47094,-0.81465 -0.84371,-1.292138 -0.47826,-0.612619 0.0754,-0.08649 -0.50727,-0.588629 -0.82561,-0.544364 -1.65293,-1.097404 -2.44395,-1.686907 0,0 -3.65775,-1.515089 -3.65775,-1.515089 z" />
  </g>
</svg>
